<svg width="800" height="248" xmlns="http://www.w3.org/2000/svg"><g transform="translate(0, 0)" id="single_state_map"><path d="M200.01592347405494,50.1646785275866L200.17339746222024,50.38449489176446L200.31760117048452,50.68170581944878L200.50987278150296,50.88974614935023L200.60600858701218,51.097780452222196L200.55794068425803,51.424679324160934L200.2214653649753,51.810995172306775L199.9090239970701,52.137952733514794L199.35351533563517,53.22992142270323L199.20606778117235,53.366622281320815L199.16920589255733,53.47598109578257L199.11759924849594,53.76759646480696L199.26755341138323,54.34222636804088L199.29881229292914,54.38887999861572L199.7160888720564,54.50897525610844L199.91551168946626,54.95097777167848L199.73112852261238,55.212740514912184L199.425543465989,56.12414352076348L199.372683517714,56.399618854212804L199.42524857088029,56.764807815699896L199.6558565460591,56.891057406042364L200.20074898357325,57.018306734725684L200.60696699611708,56.95263288128899L200.81951264587406,56.858083340134726L201.62855737720656,56.933504461696884L201.87066626163323,57.05747393467118L201.94741271373096,57.50751708318194L202.05858816979526,57.586847817609396L202.62382836982488,57.84478050814732L203.3337146207832,57.99514589930095L203.67888934577877,57.38255346296728L203.93765980385888,57.05027811625496L204.46987175168942,56.71151998583173L204.70505060105734,56.60940664794589L205.0375448363684,56.539083327762455L205.29344006713745,56.32947567350766L205.92672731355196,56.21578761062074L206.07727126665668,56.10674376541601L206.3880907114626,55.986037497179495L206.6716323586934,56.012820798785924L207.07932484678076,55.84783771941284L207.20347568763736,55.829161870040025L207.58521740614015,55.38448012312983L208.5255641847225,54.56483071269713L208.5285131358114,54.557814635134946L208.73000021898315,54.44710549165438L208.80460868154114,54.35443652717413L208.81699427611602,54.13410374917157L208.90590515145686,53.9938636120778L209.50321519458248,53.785639777011056L210.21332261687257,53.20239866865268L210.5008453480732,53.08383089699328L214.27550274229998,46.190594421037986L214.64412162845474,45.80744262117378L215.71311639830583,44.958962204093496L216.41349228199942,44.73998321592899L216.53882270329177,44.42062686826421L216.7747387904319,44.165131546430985L217.08253556037107,44.094047478734865L217.43766299529216,43.97888796800953L217.85398116531633,43.70841096960885L217.89541392812134,43.617610903441346L218.27877756972157,43.25257390349361L218.6621412113227,43.115680234780484L218.77530720937284,43.22337014025834L218.89068492073875,43.28907844018704L219.63536879455023,43.31645672068362L219.96469290744062,43.13156003442509L220.1941213021828,43.08665844105599L220.48960620132493,42.909969764657944L220.7639323764015,42.8928117478963L221.0066310510456,42.768779968649596L221.70708065851704,42.25766242002737L221.81029394664074,42.07511160168633L222.1346785664582,41.819532641176465L222.51804220805843,41.61871420397074L223.12257718135334,41.41789013690868L223.1963009585843,41.44527556849471L223.79353727793205,42.04772857774515L223.9188676992253,42.07511160168633L224.25799707448732,41.992962215868374L224.48654078390427,42.15726004555063L224.64902798892126,42.209286906152556L224.8746227472484,42.156894943440875L225.04684149086006,41.92906759786683L225.26808654633078,41.60045770324905L225.56548826367907,41.58083191308151L225.79152536467063,41.60045770324905L225.89473865279433,41.73738032456686L226.21411005575828,41.8601520496577L226.43970481408542,41.68562388137025L226.52139075925788,41.54559663859709L226.65409355827342,41.28999878522154L226.9354234921875,41.10030276771158L227.03288632568638,41.033022463145244L227.10189178117434,40.957981812091475L227.15143415947387,40.869246597040274L227.6320394632421,40.42171952952367L227.88535436180882,40.112305129416654L228.00478688092335,39.67760506944751L228.0917809380544,39.482296450011745L228.35726025986332,39.39819979339882L228.6963159113493,39.28132114913478L228.88807145592637,39.29045236193042L229.35835543088433,39.46805213466905L229.58395018921055,39.66016538597842L229.77275678269962,39.865603986258066L230.0603532376772,40.11212252623591L230.3110140802628,40.22168359762372L230.6132815669107,40.306318377646676L230.84182527632674,40.532006234261644L230.92292143127997,40.62330189034628L231.00409131001288,40.687208157128225L231.2759846004401,40.725369055931424L231.51566060021742,40.67296623848415L231.645488171921,40.541135852245134L231.77081859321424,40.44070941429936L231.98461754718483,40.42244991063944L232.6013906674989,40.42847555199296L232.96521750813372,40.28541084972403L233.55500772598225,40.15749927333354L233.83523180323664,40.64137829221772L234.07852026809996,41.37169980507815L234.39553251019333,42.04708963926987L234.39560623397028,42.512586854886194L234.2903286800847,42.890530093636244L234.8305765196328,44.09140120329903L235.0886097399425,44.27390066802809L235.9659964127668,44.25555968183244L236.41571145387752,44.01830886457401L236.68856315340872,43.93609049920542L236.96871350688707,44.10946885753356L237.19725721630311,44.1550940443135L238.12625053319152,44.1276277166603L238.55384844112996,44.15500279422895L238.5833379520236,44.0820023550591L239.5123312689111,43.58010420873279L239.93992917685136,43.47962910317756L240.33066519617478,42.78602954991629L240.33066519617478,42.49396754692134L240.4707403729144,42.22927607318343L241.22279662444726,42.35705938481624L241.66513928783388,42.74943118257761L242.01901341854227,42.8133184852104L242.34347176213578,42.457367687780334L242.52040882749043,42.010122387628144L242.49829169432178,41.918844406101925L247.4037981074962,32.97626820211099L248.9670370799031,30.42266530219058L249.40222853689738,29.61679656489241L251.23478046752825,26.220798763235962L252.00416180671073,25.723774920390042L252.23506467699826,25.74783558738136L252.77516506899337,25.56394782154439L253.35470768180494,25.14547112788432L253.59062376894508,24.934302164314886L253.72671786171304,24.649287345140692L254.55153948137377,23.640984589430445L254.98024324597282,23.222028964681158L255.4553192664489,22.973737177640032L255.84244282068903,22.711982693653226L256.1646157271889,22.440974305076452L256.7592717143343,22.073206490171287L257.5487796447014,21.9377372063841L258.2557169445681,21.73205695884326L258.59845878491524,21.45240651244967L259.14718485884714,21.090629652900134L259.5558357560376,21.111135714945704L259.80590680840487,21.390524930783613L259.9309423345894,21.669994730341386L260.1309549422167,21.94936203646739L260.38095227080703,22.042543060181288L260.58435617218765,22.044190650817654L260.8310359308016,22.166660488423076L261.4941813069954,22.649562897393935L261.70613716653406,22.880659848710366L261.98120057938377,22.849633802329663L262.1062361055665,22.911685760052023L262.3062487131947,22.973737177640032L262.5673783321472,23.01547057063135L263.05233333877277,22.986916170240875L263.3015934295918,22.948294331333273L263.6674845359885,22.767171589021473L264.0064664636966,22.663383163328035L264.2957585655513,22.63629175588312L264.66717895524107,22.71161659673544L265.03012111054977,22.868945015208283L265.31240945356694,23.09555041028034L265.60671477227334,23.284169197952906L266.03106883401506,23.18688608930279L266.13959023409825,22.882581811743876L266.1887639935121,22.575427238642988L266.0054866833152,22.19512664402373L265.55665632753335,21.88730170035842L265.2316081937215,21.794118646864263L265.0066032256127,21.545777112627547L264.9065600599106,21.390524930783613L264.83158297846603,21.049068078268647L264.8065906179845,20.831735543567902L264.8065906179845,20.521196677722855L264.65656273131935,20.100043334138263L264.2808663625501,19.62676544101714L264.15649435036084,19.403346106870686L264.2064790713248,19.09274496193393L264.3133785483087,18.813540331136664L264.38149931847147,18.347411781781375L264.33151459750843,18.129996792958536L264.2564637922869,17.974670140342823L264.08188588780376,17.748726088043895L263.7814614955869,17.508761439404225L263.65642596940415,17.10492480591074L263.65642596940415,16.638959172691557L263.7563954113284,16.266128056751768L264.04981604470777,16.029228162367872L264.3733159791982,15.838676507224136L265.0508374919518,15.18682300443652L265.25689544931174,14.616459459529324L265.33165135942363,14.215299278937891L265.4566868856082,13.904471631561591L265.4566868856082,13.717986850387206L265.4316208013488,13.469363416152191L265.4566868856082,13.189663117928376L265.5316639670518,12.941021210716826L265.5268719215319,12.58055290654056L265.46752428086074,12.3617700704649L265.4816792460888,12.008422030336078L265.9714262982352,11.550372502204027L266.5000995047585,11.367492772466449L266.63670966396785,11.390685299482357L266.7287169379515,11.318999062333205L266.9251170804955,11.02830487653273L266.9824741791808,10.535903584629068L266.96065194112,10.427719246760716L266.85360501658124,10.332735707485881L266.77943889668677,9.485620745313554L266.8811777092651,8.85821928335372L266.81276204399546,8.691960528508844L266.78135571489474,8.43995142123731L266.7073370425551,8.34090609279383L266.5847344010199,8.267813422926793L266.5618800300781,8.04247783536539L266.58510301990646,8.006709624226914L266.7290855568381,7.713403496883075L266.7792177253559,7.637827972596824L266.739480609428,7.394128114955038L266.7457471304915,7.311211389894197L266.62026926164526,7.030901662418728L266.60884207617346,6.904410108470984L266.57256997777677,6.787456158835994L266.53865704024975,6.69279084511254L266.39194672356007,6.222472648983057L266.0211161240886,5.691848061277597L265.9703204415764,5.140264683357145L265.9923638509681,4.76444413175841L266.5822277925945,4.707555497246176L266.5822277925945,4.442833835385954L266.76086050482445,4.016597440719579L267.03326986169304,3.5830855468229856L267.3144523480523,3.3012518976670435L267.381909604218,2.95635523569581L267.30693252277433,2.613919950008494L267.1569046361092,2.333791735430168L267.13191227562857,2.0535606632884083L267.29926524994244,1.7809374295684393L267.5794156034208,1.8543723287675675L268.05862015542243,1.790116833563843L268.2724191093921,1.5973468537699773L268.25767435394664,1.2587933648987928L268.1249715549302,0.8445757809963652L268.0438016761982,0.2386287959211586L268.2356309445531,0L273.88294600422705,0.10081453080647407L279.7736232525385,0.6975006828715777L281.3366410536137,0.7617660824294035L282.1066121830145,0.8346607017747374L283.0618511645962,0.706589681900823L285.5833517934507,1.0369990165140734L290.5526292739296,1.234282492804141L292.13783793195125,1.2296924324291467L295.5151978906806,1.2020602061647878L298.8481024117409,1.3030412415082537L299.7686912180252,1.3672093519717237L305.1581942287203,1.486455842964915L305.56367500349097,1.5690734826457629L307.73130150163615,1.706675614242613L308.984679438342,1.7342140790251506L312.0518097424838,1.9085300796114097L313.6250751485941,1.9368020970641737L313.8478684033862,1.9408409474963264L317.34547184277835,2.174631391294497L317.90577254973505,2.2480622131151904L322.1680390065685,2.287806328244187L322.2896832389988,2.3004729971089546L325.4312008343677,2.420438079550877L330.1557890982158,2.662106027405571L330.19648462324767,2.658801849696374L332.64182859022367,2.50653265672463L334.87248891790205,2.5529755660395494L338.0656131573314,2.3655499463379783L339.94704395226745,2.368303541737987L343.74249145167414,2.6526524037499257L345.8481162531689,2.7272714398350217L359.46401322241036,3.441114737103362L360.0148772858811,3.4712160899225637L360.09029670998734,3.4788331802906214L370.1434184207628,4.052018706652689L375.08143701969584,4.061745759088808L375.29191840369003,4.072665736030103L379.25619335295596,4.121208959485102L379.4110870089189,4.1238701095780925L382.902055308361,4.173789429793487L389.89947390046564,4.187645649408296L394.30505938023634,4.187003308701605L394.34428042972377,4.189480908255064L398.9385250554278,4.192876135871302L400.22131877924767,4.156170886298241L416.4370847525406,4.253989955074758L416.472619613166,4.253989955074758L427.9867991411047,4.348871327924826L432.7556953950707,4.3069364869261335L432.77589571003045,4.304825974155392L447.2218486871161,4.312075124093553L450.1899679584376,4.270323589370037L450.24850463755865,4.272434112407609L455.46446187665333,4.257018103598966L456.33867842705786,4.275921062134785L456.4376157361021,4.272709397973358L467.711603197823,4.221781386245766L467.8027995102575,4.218936747783118L469.89087805277086,4.225818935653933L469.9089403781927,4.222699011311761L471.86918189098833,4.235453987454548L471.9338376436199,4.2356375121248675L480.6511582347466,4.259403916677002L482.9270112378681,4.258119248195726L483.4458791820198,4.246648983591058L489.9587113863845,4.229856482763353L490.4551673022579,4.232058780218267L494.7321047907608,4.316387905987085L500.0616703705682,4.324462894824137L500.30429532143444,4.326573401753194L501.7608559881892,4.318865460357301L504.6318810448947,4.2048970638225L504.6488375136578,4.204071199194004L505.66784756254583,4.189572671184578L506.8305452532559,4.170027140324692L507.18928515326115,4.1719541668876445L515.4773859133484,4.067068102893245L521.1711469526781,4.018249213528634L521.261016237122,4.011825650443825L529.5283268920302,4.063581050508674L529.55870108825,4.066884573862353L536.4512107453538,4.031555147130803L536.4867456059792,4.0336657412012755L546.7466625118877,3.988700775176767L548.0304883685885,3.9819101228845284L548.5522315400522,3.98035010725107L557.8100211420588,3.9100572820889283L597.9563040332068,3.996225544452045L599.0607599399045,3.8509593809712896L600.5732032297983,3.7453344214000026L600.9536179203105,3.835725991244999L601.8242220056318,4.042383405710552L603.8795671910548,4.050825765340505L606.0728495636777,3.9920960988874867L619.2704378209091,4.066517515786472L619.1768086238271,3.861787915222976L619.2010637465355,3.430836197128883L619.2815701112722,3.306850135172681L627.3041178257727,3.443317279447456L629.2048642503423,3.4384533308611935L631.5358626388324,3.4639660806478787L632.3725537866285,3.4085353850728097L644.3772176044858,3.4306526516361373L646.869744788888,3.4702983676379517L652.5036421211053,3.4116556675226093L663.7135636204121,3.4483647697352353L684.2429815232681,3.439003966717337L684.8328454648936,3.4481812246981463L689.92730591911,3.4481812246981463L690.0673810958497,3.4481812246981463L690.237019507259,3.4481812246981463L690.2812537735963,3.4481812246981463L692.55201983609,3.4389121940771474L693.3334918747378,3.4389121940771474L693.5104289400924,3.4389121940771474L693.8275149059627,3.4389121940771474L693.9233558163633,3.4389121940771474L694.6089869446123,3.4297349241060147L694.6753383441201,3.4389121940771474L694.7711792545197,3.4297349241060147L695.1692876515672,3.4297349241060147L695.2135219179054,3.4297349241060147L695.6043316610076,3.4297349241060147L695.6706830605153,3.4297349241060147L696.6069750313491,3.4297349241060147L697.3547553038034,8.071825976612672L698.9712228433709,15.17646982469887L700.1684969856024,21.13585276486583L701.8143803122848,27.28754952866757L703.5763785881063,32.85663414687315L704.5254247724006,35.116913227067926L706.0888111923614,39.722345424388095L707.572207314026,43.42916287386561L709.1622817413454,46.729891510467496L711.9788986504564,51.93350345670888L718.5213678132668,66.24176098964017L719.8111652959242,69.98221205166101L720.8108597151759,72.23466006863873L721.2330757873788,73.14527614279586L720.9812353643574,73.80496709049748L720.4776282420917,73.84377056441826L720.2257878190721,73.14527614279586L719.6906269201509,72.05868588483736L718.7835295651012,70.80965495332794L718.2788903099554,69.37354774299592L717.1144232485913,67.9131441503464L716.202312676689,65.87778015292452L714.8825833404762,63.86577445014336L715.0378456153239,62.356378659857455L715.0004676602684,61.611256697457975L714.8115873430033,60.60058572504613L713.9931796919618,59.12337806993537L712.6894484154082,56.91519578386533L711.2533092349486,55.76411487449468L711.0010264692637,55.14058132287164L710.4769978607046,54.34906041488648L707.1776376582857,53.50942633420482L706.9253548926017,52.83766665423764L706.9641335994256,51.877900997304096L707.2941212263113,50.84598707131909L707.2552687957104,50.38996514267046L706.9447442460141,50.10195076550417L706.1878222251835,50.077971839562L705.9355394594986,49.52588734543042L705.8579083220739,48.73374744800685L706.0131705969225,47.70138143700251L705.99378124351,46.9330296132498L705.2174698692688,42.75362950852241L705.2005871242827,41.828843177622275L705.0717916854601,40.95168274357138L704.8142008078157,39.75521571108948L703.3327952281352,35.44655180041627L702.7531788915448,34.089527467167954L702.0446933923549,33.13154272533484L701.6582333521092,32.732336903418854L701.277671214043,32.2704988684477L700.6954008214725,31.524530385313028L700.6760114680601,31.18767189104483L700.9477573109343,30.104680762110092L700.4819704863894,27.745502755537018L699.860921386995,27.167637208558517L699.045757582152,27.119525368057566L698.7546223858653,26.902743660344186L698.2112044238957,25.891374534388888L698.5023396201814,23.795821722103483L699.2010198570006,22.83215299106132L699.2204092104121,22.15750735957181L698.8808374924856,20.627213531582584L698.3761982373398,19.904198548113527L698.0656736876426,19.80778490136936L697.7551491379445,19.132852828990053L697.6775180005206,18.650719327198658L697.7551491379445,15.805421055961233L696.8235754888537,14.454733602533906L695.6202559968897,13.97228306691386L695.038059328097,13.441595497043636L694.8051659158236,11.704372835558388L694.1841168164292,9.725306119928973L693.6406988544595,9.387415259038335L693.2136907367376,9.339091426138566L692.9031661870404,9.387415259038335L692.3986006556715,9.725306119928973L692.1622422258688,9.66194707689101L691.5621306792082,8.947995558785351L689.7488206544349,8.542296809526306L688.8290428097007,8.57476089877764L686.5315887398501,7.514190550432431L685.384962832577,7.76448989443179L685.0630848211858,8.014688702324293L684.6506740113555,8.602822958046545L684.4495555470694,9.691196835573919L685.3145566253206,11.880094140269648L685.8954262661236,12.902803088038581L686.516549089295,13.415843633570148L687.5518520929509,13.879179633369404L688.2757458615815,14.002339820646284L689.5854487640909,15.672122852411576L691.1785458662762,15.524621586100238L691.490397443963,15.137164252936145L691.7670090561332,14.720456864191874L692.0858643926567,14.632402772667774L692.4373793624945,14.888956920668534L692.9676007683411,18.25793725118274L692.9277899286353,18.793027653717218L692.4440145024464,20.20048151195806L692.4572847823474,20.743665459596286L692.8681473928555,21.5007396817482L693.047075000196,21.615895798214297L694.5249418385683,24.610400010050398L695.0464638387011,27.007385104309378L695.4930087573885,27.806780467053613L696.1884451480091,27.980916047234587L696.7626059250852,27.806780467053613L697.0879489540048,28.178734033854653L696.9922554911591,29.47653283272939L696.5839732128534,30.75032633829005L696.8200367475474,32.300752778155584L697.2219050572321,33.47918457755304L697.949190119617,34.03278120881032L698.7211517910027,35.53498883270731L698.5106704070085,36.11208670631231L698.6063638698552,37.637695732131306L699.7866078195457,39.35254430008354L699.8886415272336,40.48243220543418L700.5585694909314,41.31190753003057L701.5218443642325,43.51549367581083L702.1662639010092,46.294771680477425L701.9939714336188,47.25774673919159L701.5660049067938,47.1729203689697L698.8894631744215,45.35064418883212L698.0268212570409,44.495357528626755L696.5518296459813,42.18902385799356L696.6601298747337,40.89754704222969L696.8377304540827,39.270911552340294L695.4315968509554,36.751983291854685L693.3915862111962,34.436026248913095L692.5300501504753,31.514657960659406L690.5029411717305,30.257823445015674L689.4133037442571,30.57205280620883L689.9708029476769,31.169023087064943L690.8323390083988,33.493806366956505L690.0468121620015,35.723553398728654L691.4911346817353,37.2933614451058L692.9101699458779,38.046765251117904L693.8087890665456,38.8178054864693L692.7007944185416,38.75707869318967L692.3597482250707,38.87232218384588L691.2986418993842,38.69635138471858L687.1594941505264,37.549832695534406L685.5528318733323,36.79217474298002L685.4089230601776,36.613960475851854L684.6606267212819,35.36076317973948L683.5730535595703,34.621604529787874L682.8011656119616,32.88204169965502L680.7979431370404,32.08019792562118L677.0730492924431,27.523343775435933L674.9071184411741,27.225627094730953L673.1880274037012,26.572710593111424L672.9072872600063,27.138550621323702L672.8920264381186,28.12066043610139L674.1703230115263,29.532218047046626L675.7842839426685,29.706311548294252L676.7315607563096,30.750509180655172L678.2639831898332,34.247610481694664L680.8992396069561,35.59793559962827L681.9840849889097,38.54759013192415L682.3874277741406,39.64400396598967L682.4353482293409,40.178589776215176L682.0701206369386,40.68163920513234L681.5210259441219,41.009560932878685L679.9814523042069,41.41022219730257L673.6123814654429,42.53932920765692L671.5534975387118,41.25257119114667L669.9824438459191,39.33839103803939L669.3374345189259,38.25151955592628L668.5305277771313,37.81688914291453L668.0743987674032,36.99102775979236L666.9923548889838,36.48187261371913L666.6008816318872,36.556320775071526L666.3842074506056,36.92142526547241L667.3726958557181,38.121105805382285L668.565620295094,39.03376953228462L669.3742964075418,40.46818987955021L669.9570828665519,41.880050911785474L672.6710025539796,44.020225152632065L670.8364600813629,45.09582067545443L669.206206195453,44.80759369224779L667.2654277598467,44.23110496057552L662.481934197991,41.62912038856484L659.263891321857,41.189856710961976L658.4963530771047,40.424184565488304L657.7946501654196,38.90337003363993L653.7905643764498,36.23066144342238L653.3038399991701,36.46935793875127L653.1824169380698,37.04701982611823L658.4023552611361,41.94285062795416L659.0927784349042,42.81350101954558L660.2505366325395,42.59628187205362L661.2657130450107,42.75846670710462L662.1100714656377,43.68203800359788L664.7812313622717,44.56744131026562L664.3930756751497,45.336046595147764L662.9569364946901,46.056493619541925L662.3358873952966,46.152553836186144L661.9476579843968,45.91244649591317L660.6279286481849,45.91244649591317L656.5134783647,46.6809076405616L656.3582160898513,47.209131318520576L655.7760194210587,48.265553211485894L654.1457655351487,49.89799057648406L653.5247164357543,50.23397018583L652.9812984737846,51.24199701470343L652.9424460431837,51.57791374561657L650.5358807830326,52.153812576864766L648.8862375437111,53.281503518874615L646.4408198529582,52.897636358262844L645.276352791594,52.897636358262844L644.3447791425042,53.23347567795963L643.9954758859831,53.13751016897777L643.3355743559887,52.369739948897404L642.2875908626484,50.78600023518311L641.4336483509815,50.35395258094786L640.2303288590183,50.305996332257564L638.6388536799313,50.59400252460182L636.9320007894794,49.82012494379023L635.9903269829083,48.189493842442516L635.3010096657981,44.95768484605787L633.6173060413967,40.31070073384126L633.7679974420562,35.59784424042846L634.1446522199303,34.15075078346672L637.0073464898105,29.433831397202994L636.3096983858723,28.6564743320464L635.6957267690932,28.384502821602837L633.3536698140178,32.70327297142421L631.9223226790782,34.384125601920005L631.3573036503794,40.35726310276459L633.2783241136885,45.02036636134835L633.5029604629108,47.72518589512174L634.7850169489584,49.91330830645484L636.3875506946279,53.76130863324079L636.6980752443251,54.528930191738255L636.3099195572049,55.34439273016733L635.5336081829619,56.20777107681124L635.1843049264407,57.023134331360325L635.3783459081133,58.17401378001841L635.8053540258352,58.84527511437L637.1250833620479,59.70823340439074L637.5908701865937,59.85209525238588L638.3671815608359,59.70823340439074L641.977066312952,59.56445973544487L642.2875908626484,59.27681272296513L643.5296890614381,59.085041660683146L647.8381803265956,58.89326548794179L649.3908030750799,58.36580912292129L650.1671144493221,57.8863111786568L651.8749994726568,57.358780983321594L652.8454255523475,56.49554082366876L657.4450520137907,55.22449364805334L658.0661011131842,55.60823655623244L658.6483715057557,56.3756609356592L658.6871502125796,57.191005157451855L660.0457319793913,59.061001622901586L661.7147645721243,58.96511385504846L663.3838708886342,58.629542138438865L666.722009797878,56.27973736715376L671.0305747868124,54.88874735659192L673.7864433034847,54.40901750730791L679.8972597506081,54.43325533888037L680.6762251808323,54.72082277229174L682.2288479293165,54.43298198033426L685.0236426003667,56.44762554586623L685.7223228371859,57.40678127326646L685.7611015440089,57.694503052300206L685.3341671500648,59.804111272038426L685.746799131226,61.01408400695664L684.0686247901176,63.82072922909674L683.4124094489835,65.60730711035876L682.1453926134909,67.13939875049437L683.0830116123161,71.38992669159688L683.3537253223085,79.4536326795519L684.1219270810552,81.95857006926144L683.3870484696163,84.79710518444244L683.8449468499985,85.5009173937201L684.6033433463726,85.67030481575148L685.8449992024989,83.79911166335023L686.6305260488953,79.41540412837685L687.7707379875483,74.8884780356052L687.2386734872734,70.8587475847994L687.7524544907965,68.63697163402867L687.7707379875483,63.981070733118486L688.4394126470343,63.159032530477816L689.2933551587012,62.96736483947461L689.5650272777966,62.77569204876727L690.6518632017387,61.05040735806506L691.6610679882533,60.33146223984886L691.9715925379505,60.28348145486643L692.1657072434,59.99586317605372L692.204485950223,59.228824907081616L691.3893958691569,58.26991209056041L690.9623877514341,58.12601860904351L690.7294943391616,57.83831408831702L690.6907156323377,57.45469016167726L691.3505434385552,56.97513148113012L694.2228955232531,55.872070700438144L695.6979608580905,55.72812923898209L697.0953213317271,55.77614041380957L697.8716327059701,55.96799970722486L700.8603946349158,57.502689811631626L701.1709191846121,57.982213324135046L701.4814437343093,58.84527511437L702.840025501122,59.660339518286946L702.840025501122,60.33146223984886L703.1116976202193,61.242126070006634L703.8492302876375,62.77569204876727L705.0913284864264,64.88381235018232L705.0136973490025,65.50659356628012L705.3630006055218,67.23081181168072L706.3722053920374,68.42789762756775L706.915623354007,69.93402269442367L706.9544757846088,70.96520471832855L706.5178098520682,72.84635514816819L706.1034085002539,73.97008487917856L706.0205429746457,74.63406201725638L706.3106460380495,74.94045049187935L707.097942255099,77.18708421980182L707.5122698831374,79.79032578009628L707.8023729465422,80.35162772255126L707.9681039977568,81.21909952702663L707.9266712349536,81.62733364238375L705.8548119234301,83.61688450973497L705.813379160626,85.14688761899743L706.1862740258612,86.67665847222179L706.7249736660879,87.54337325124561L706.7249736660879,87.79824297116284L705.4404842953918,89.22543858716062L704.2802194893302,89.8370597171529L703.1614611698496,90.85625327367916L703.3686249838684,92.02813535800442L701.7525997869652,92.48670159497487L698.810578732785,92.79233590599961L697.7332531761085,92.079078520665L697.1531207730768,91.36584170998094L694.5426355451045,92.58858112806911L693.6724738024459,93.86204533147566L693.5481755140345,94.21864054513435L693.5481755140345,95.03344248877647L692.9680431110046,95.74640984214238L690.8133182738738,96.10291258736561L690.4818561714428,96.40839480116392L690.1503203452357,96.81568444928325L689.4458896537926,98.19029971566852L689.4044568909876,98.80107593311959L689.6116944287851,99.51367392118436L689.5288289031769,99.7681239468875L687.7469989312813,100.63327801524883L687.1255074892224,101.44745204175615L687.2083730148306,102.5158889746831L686.9597027142308,103.43158020756346L686.0895409715731,104.4488698347077L685.8823771575544,105.3134679009986L685.9652426831617,106.17796338223161L685.7166461063389,106.73722963416503L685.2608119917195,107.29654343406628L684.9293498892885,107.49988673869711L684.0591881466307,106.99151784169999L683.1061608783657,106.8389097968552L682.4017301869235,107.34737979196098L682.1116271235196,107.80489106179493L682.1116271235196,108.41495187652254L682.3188646613162,108.92331197720296L682.4017301869235,109.73646976212058L681.6972994954813,110.905406126667L679.9569760101658,111.76914859450017L677.7193856474278,112.6836784359898L677.0149549559846,112.83616426147546L676.2690915017392,113.80135187327733L676.2690915017392,114.71553687297637L675.7718246243167,114.91876391988626L674.611633542032,114.71562723752459L674.3630369652092,114.41082125324101L673.3685032103622,114.00451398443965L671.6281797250467,114.00451398443965L669.4734548879169,112.78536613632832L668.1475327544167,112.78536613632832L667.8159969282087,113.29333148430806L667.2359382489549,113.39492031340478L665.9928079172869,113.19174124181382L664.3353499575778,112.27727504894847L662.6778919978706,112.17567066693391L662.0977595948398,112.27727504894847L661.6834319668023,113.0901495858484L661.0204340381624,113.19174124181382L659.8601692321017,112.88696203318568L659.1972450272397,112.27727504894847L658.6171126242098,112.17567066693391L658.2027112723936,112.17567066693391L657.37398229254,112.88696203318568L656.7109843639018,112.78536613632832L656.6281188382936,112.48047957051267L655.7993898584409,111.97245766005835L654.9706608785864,111.66753713915523L654.6391987761563,110.24473777041248L653.7276042706935,109.73646976212058L653.2303373932709,109.73646976212058L652.7330705158483,110.04147098537896L651.9872070616011,110.85459456238868L650.9927470305329,110.85459456238868L649.9982869994637,109.93983546903837L646.9725894581261,107.30215173293891L647.4540794472214,106.27612305212688L647.5047276821788,105.34323611710215L646.1364143767714,105.00112050098414L645.1481471429897,103.85033232227124L646.2377845704641,102.94817982195582L643.577093450197,98.40485610288533L647.1499688661434,98.28032541213724L650.0133266500179,98.84065144818805L651.660389557137,98.1557925888651L653.1554340356042,94.63728907893028L652.0657966081299,94.01438204869874L651.1536123124506,95.75845964869359L650.3680854660543,96.16324905993497L645.7562945813679,96.59917878097531L642.538177981457,95.72729319075415L641.0432072267677,96.69257595010777L640.0295790136179,98.28032541213724L642.842288562535,100.92580448713215L642.4621687671324,102.76154483662367L644.6553774159775,109.37267605626812L643.1619548606086,109.43154621600797L634.4549555982958,105.80964927567129L630.8313582236133,106.55593870760913L625.5480911759087,103.92807077177486L620.0241159955431,102.96374760651042L614.6141914985528,100.72354509836805L611.8820620381493,97.95218815031967L611.2680904213703,97.84440591295242L611.6748245003528,99.35420799837675L611.117325296932,100.07001147351866L614.120021019773,101.67259451192422L614.9055478661703,102.79268117053243L615.5390562839166,104.84557518749943L618.7064509250922,103.81920051028055L621.0479180899501,105.22208143218859L624.4458469825258,105.9029283249929L626.118270869013,107.51978657947711L633.8720954155069,110.4416696724652L637.8503778824461,113.17592412849808L642.2049465083728,113.89398654398474L643.4513206862412,114.30924655503395L645.937507625802,114.41082125324101L646.3518352538413,114.71562723752459L649.9154214738555,115.32502033954961L651.2414173311336,116.0360050698564L651.9872070616011,117.76235563972205L652.31874288781,119.38670418247602L652.31874288781,120.80781486265187L651.5728794335646,122.43148739577055L651.1584780817475,122.63450012207795L650.6612849281018,123.3446844306568L650.5784194024936,124.4607296834206L650.3297491018948,125.17073691647238L649.5838856476475,125.67793304032375L648.3408290397565,126.99633433594136L647.2635034830791,128.61872597687216L647.0148331824785,129.3284207200495L647.2635034830791,130.84886092437L647.2635034830791,131.55833994972227L646.5176400288328,133.28103632364355L645.6889110489792,133.88888668483742L645.4402407483794,134.59807197123746L644.8601820691256,135.61103642133367L644.3629151917021,136.01614705434713L643.5341862118476,136.01614705434713L643.1197848600332,136.82639141272557L643.036919334425,137.5352932150563L642.5397261807793,138.24412665612454L641.5451924259323,138.85156658651704L640.8822682210712,138.85156658651704L640.2192702924331,139.2565887262149L639.6391378894023,139.76272246430744L629.9506539808117,146.4476254872634L627.7208046146825,147.56079648455307L614.3415609703534,138.8980412405599L610.185899095396,132.08447681856478L609.6673997701291,131.95096279178006L609.4764551871021,132.4562478475218L613.834783725667,140.25999646158334L614.7470417451232,143.91134630238503L620.9298125988253,148.1791621745847L626.4538615029669,149.78672425553168L630.5588014191908,151.51756703730416L634.7651852528825,148.42652990822035L639.985049852171,145.33419631243942L643.4513206862412,145.12614078095294L645.0259131203411,144.51912858117066L647.0148331824785,144.31681006341796L649.7496904226409,143.70973114937078L650.2468835762866,143.30504407355602L650.5784194024936,142.7990639257937L650.6612849281018,141.28109483191383L651.4071483823482,139.66149850314196L651.8214760103865,138.04154544893254L652.2435446350346,137.5705158067808L652.6363449201199,137.47448655337348L654.6789358920832,139.1381556073543L654.9146308078916,139.9378798534908L654.9669746897252,141.5691197970209L655.4383645213402,144.22293886344687L656.8523865686302,145.50157236231325L657.4285378876912,146.46040186191613L657.6379871388044,146.58825436291818L662.3254186189297,146.97170858912295L662.7443908449322,146.49234270163288L662.5087696529026,145.53351735901606L660.9899123943896,142.84821420737217L660.2043118242163,142.0167561043122L659.9424449674916,141.53706756064003L659.9424449674916,141.21725782572412L660.8328070251109,141.3771644306321L663.3205421639932,142.49641338485117L665.1536101610654,143.48767807245167L668.9910802134946,144.43425987969022L666.541533991216,148.50550593125354L666.3320110163249,149.75147012016305L665.8606211847109,150.03898426147907L663.8442758774427,152.4343499551337L663.2157806765481,153.55192126784686L662.1944851905673,154.95664608132665L661.1731897045856,155.8503574347933L659.6544061698496,155.78655658816479L658.9997390280387,156.2653190737492L658.8163879940639,156.71215404347367L657.6642328034986,157.35041718079947L657.2976044593279,157.35041718079947L656.4595862835431,158.62677813564233L652.6696680674295,163.67257116411383L650.1103471408551,168.54574442142894L648.121205907386,172.9226414313216L643.5854242370242,171.41264095130055L643.7375163894512,165.89365182162464L643.0533597367485,164.99908886269486L642.2171109316168,163.45659349168227L641.0515380135948,163.73423944299248L641.3809358502613,170.9040079901979L639.0750772698084,171.15061683037356L637.1492647609803,170.6266305070808L637.0732555466548,171.45882151933574L639.1053777422503,172.2654555369013L641.3352271083786,173.12830266257743L644.933463503693,174.6687877025638L648.5392934480624,176.8504677879573L650.6073928469459,173.47936595138526L658.5077802625756,161.62295313961522L659.2877778256789,160.79603237868832L660.073378395854,160.15806661765055L661.6445795362006,158.49913399054822L663.0063314254357,156.83973920256767L666.6056736774071,153.59210106256387L669.5777740326985,151.01835480499994L672.433538267519,147.70671171463482L674.9997892291531,145.14998827456748L678.5611637358525,141.24931145518212L679.9229156250849,139.96993905770705L681.651222134712,137.53844613935053L682.0178504788819,137.41052641084661L683.5890516192285,138.0504631028557L683.9556799633992,138.4983135872535L684.1558400185813,139.04394812949113L681.4231207679595,141.60837459295817L676.6849673290999,145.44740053014948L669.6208287186009,152.85687508832416L663.9351035709915,157.6349404311013L658.2883045777589,163.71718422074082L653.5957861570059,170.0096010441025L650.3803973368513,174.7149480195635L648.159026205104,178.8864771935505L647.2929929939719,181.29035598486598L645.8738102822754,178.8347887156142L645.9762863326259,177.73652518953259L646.2256938709979,177.50921929253218L646.3053155504085,176.18341343042675L644.0844604851009,174.87592427836853L641.1906547812287,173.76658720486103L639.4050648966941,173.31226333056793L637.9522641425792,172.6034697375212L636.9446812791639,171.91962507698327L635.6590123280312,171.9771898856925L633.2100558959728,171.60229329530193L630.034404191746,171.58355245207258L626.5392336370014,171.86842609468567L619.9922673237788,172.84589803002882L613.7991014174877,174.0289671972855L610.7880011840416,174.78539796973155L602.9925964271888,177.31774653500952L600.5701805549315,178.29459126741176L597.6610403053965,179.81662922690748L595.3144124761338,181.3861761799958L589.3034917471568,186.0353765888367L578.9528208714773,191.78053827231724L576.82412052771,193.14469950777857L572.02123761244,196.6201455148398L570.150128146317,198.11351859363958L566.2640741246942,201.77161217768753L564.3001464230374,203.3510134801527L562.4162827434529,205.26367274099357L560.4923870528319,207.5453871088448L558.5155576901598,209.5380724812635L556.7545915472201,211.93799657725822L551.9487596808622,219.33881121347895L551.0216094584048,221.28721844229494L548.9173854086775,226.7656414759672L548.6182880444503,227.08162049937573L548.3398333378491,227.767649927403L545.5844071638403,236.3279810796621L544.6709695639483,238.6796617132868L543.2966109088084,241.61214962286886L542.5362975942253,244.67377195836343L542.2936726433572,246.8468254719146L542.3236044969135,248L541.5244387517287,247.6278183477275L538.858660690833,246.36840763463806L538.6221548134754,246.12852152719597L538.6624817196207,245.5587837944695L537.9795783711306,243.74140980860875L532.3220157064234,242.16557325151598L529.2607833044594,241.61952294832463L526.2552123543064,241.43349974747252L518.998802132789,241.60299958249652L511.0501256430716,242.52843019295688L501.82890303457316,245.76370608366233L499.46642459320356,247.04239193230933L496.5697436620203,244.04016182518126L493.94856848634936,241.32236336185224L493.5477323095447,240.91813652946848L491.31685081053456,238.66793090120245L490.5131879149385,237.85712773714022L487.54646939538543,234.76811592487547L487.0031251571936,234.2861774003568L486.85088555721177,234.10441990706795L482.6282087687514,229.78950727697065L479.51507482761644,226.6067568783783L476.2951888570524,223.31348654946714L474.86774908230564,221.85300032331543L472.277537893071,219.22627976040167L468.310387716494,215.20148270085156L465.9462136282491,212.8018884301814L460.386777311036,207.15621049407355L455.0732835146646,201.74821378076194L454.4655784189499,201.12875480564662L451.5716252675238,198.18097784306792L451.4756369095685,198.06580532654925L450.96392017180824,197.56015107303074L449.70980499733105,196.2706180963728L447.57970390179617,194.07995732220525L447.2201530402408,193.71010596036604L444.4967967093262,190.7690595548861L443.0260073535683,189.18028713262947L441.8024875466426,187.90916861172263L441.6841608841869,187.76171628763177L441.2068731503932,187.2618061498706L439.21714212670577,185.1597049678121L432.4554184504086,178.38301433213474L431.73793865039625,177.66708876875782L431.6235193481334,177.5686223322623L431.07803712040186,177.10297220520079L430.86556519442183,176.9347862213217L430.29744976708025,176.26809788373885L429.49415549037076,175.4454976733814L427.36781430747396,173.33888883910322L427.27742895658866,173.2487023870981L424.75718163194597,170.7348744251035L424.2236426561258,170.22969273245553L419.0713827605596,165.13030058373124L418.8768257124466,164.93491812541106L415.8480317724652,161.90686313972355L414.9051783854584,161.89312580984006L414.7494000441684,161.88953434684117L410.7745825947577,161.82542643909164L410.71494005897875,161.82228388031444L408.6577517791238,161.79822081459588L408.6003946804385,161.8002859315152L401.4428480441884,161.8499383517492L399.913079666645,161.81141959540628L397.2461220253135,161.7442582073627L391.8699630182964,161.60185249919095L389.88509776390583,161.54932511170318L388.7571239722711,161.51601267787464L386.53449953631025,161.4586359240725L386.2166763326677,161.4604317603571L384.6832954900392,161.42173139191937L384.61163597857103,161.42173139191937L382.2395734461634,161.36210908246994L380.1691886101853,161.31011875486047L374.9751273329284,161.1796474639441L374.66143266081144,161.17174548117737L370.99979381707817,161.11265993346615L369.4469498972612,161.08760680042133L366.10151233407305,161.033639010579L362.4298470566355,160.97446256225567L361.16600034356543,160.94033935717016L361.06138630367514,160.93010236495456L360.9763827885272,160.93378409185652L360.5107434115371,160.9132202766782L359.851579119314,160.8990321088645L358.8251229689258,160.8663453402296L358.61176635761876,160.86059820114633L356.13656426086527,160.8304256477104L355.6514618066858,160.82449888168276L355.06358840704615,160.78292158652312L350.50237203354027,160.76316555444737L346.11101524277456,160.70093370857467L345.7592791016068,160.69509663990038L345.75308630431846,160.69707226366063L344.3833722471436,160.66555202165364L344.2399795004285,160.6633967865264L341.4773283962513,160.63510926727076L335.01042610510194,160.56874542453625L334.57398134389405,160.56416548920743L333.1119651176259,160.5561730462532L333.15221829999336,160.1890501787143L333.29140879140596,158.92041418281588L334.2547573884831,150.1320619777739L332.45449647227997,147.6934877036847L332.4306836922351,147.66155206920757L331.3413411598676,146.18192585847737L326.6726355191604,139.53721806906697L325.0753361616735,137.4427768057967L322.9818020596449,134.68152223662173L321.292053085509,136.0124528634592L319.353854982106,137.37025826096396L315.12734455722966,140.3303253294048L314.4985544612273,139.38087390259898L314.08002457788643,138.94181361122264L313.9360420409539,138.73357728874225L313.90795328182867,137.76464240788118L313.96641623717187,136.5989950310809L314.3466834801311,135.68474371043112L314.49405731081515,135.45578014000012L314.75614533887074,135.29358202938283L315.4310865194211,135.12020631119321L315.60883454632494,134.97926794080422L315.7674881149269,134.62384612848473L315.7921855802988,134.44504731487677L315.75281708325656,134.1103285597742L315.47605802353155,133.31672999534248L315.3132021996289,132.9789851996684L314.4689175027788,132.55090041250924L314.4234299322279,132.49627250965023L314.41111806143,132.353570970708L314.6601569809163,131.40642398320233L314.7143439571819,131.27893836531484L314.9133981557052,131.0300014350505L314.9859423524995,130.98744418586466L315.02553202087347,130.91008313037355L314.96987056906346,130.85336920438613L312.4906873883401,130.65770730283793L310.1284301183032,130.47123755622897L310.01452688248264,130.4649256346829L307.9969282710008,130.35383492652863L300.539694480306,129.94291092552157L300.3680655269127,129.93326200549018L296.7566325754742,129.76318643422564L291.15222475414976,129.49931801292814L285.33276467464293,129.21695205498645L284.83358097901237,129.1926920643923L284.16932974616066,129.15986429135546L281.8106849412079,129.04316217218184L281.74698759768125,129.0493851295837L277.9955531932801,128.88145361596662L275.3023498872544,128.76095903248643L272.8550153782935,128.632525500077L270.5083875490309,128.5094111890885L267.994849088117,128.37754580278397L265.38075139506054,128.24035638241548L263.74165065588295,128.1809158562196L261.2454372826187,128.0904462700446L259.05362938554026,128.01098003958577L253.71956665532252,127.76581091748221L249.94645746041533,127.6402465144406L244.35745790853343,127.37070876486086L241.5390716287684,127.28446902522L237.85767481273797,127.17179653950052L234.21859544483868,126.9531221769198L232.10058504876906,126.90106877859262L231.42247374579802,126.89285928340678L230.7855740342984,126.84188803607867L230.05054797530556,126.78811975203553L228.5219591781979,126.68951346781705L227.4677091637941,126.62455709371079L227.43836710045707,126.62275274176682L225.47731462611227,126.45566782649303L224.19415228340586,126.32620146321005L223.63414647155878,126.34541856622172L223.1964484061382,126.45846463558155L222.68768061946685,126.78685673391055L221.81685536281475,126.9630456597738L221.24940344946754,127.13652401225545L221.17508988201917,127.17360075627994L221.02764232755726,127.4279908763151L220.62370975210797,127.70483307083305L220.36073703872626,127.6807484857527L220.09297227982188,127.52640681313824L220.07601581105882,127.322086274914L219.91411839626016,127.17657771299491L219.84341729389507,127.17513434019429L219.54269800656948,127.32407087265256L219.43248095961007,127.33128758717885L219.38640359884084,127.30801365734214L219.30818267119776,127.09854496321441L219.06047077970106,126.95375367168435L218.6526308440598,126.97693851319627L217.81343308783926,127.159798486623L217.6816886979277,127.26732920714358L217.65971901231296,127.4150911642837L217.66524829560512,127.57629083013308L217.60479479827518,127.71060614314001L217.25895655928525,127.97922938658621L217.08880208143637,128.00610920970212L216.9472524291532,127.9382780572264L216.68258406889254,127.73748695120412L216.46849021981416,127.51585264668665L216.3806852011312,127.27400472000136L216.35871551551645,127.12623991864393L216.40265488674686,126.91126297409983L216.50690030775058,126.70304597329095L216.53985483617362,126.50826570257686L216.40862651270254,126.12726088620366L216.16887678914736,125.64274355154157L216.15022467350718,125.38143375244681L215.6776552614565,124.94352043231265L215.49400933237393,124.94288876427436L215.2900156407768,125.14032749368744L214.72595502118202,125.9290367170911L214.13962982086377,126.10858455471089L213.6754649194172,126.32078818565742L213.51717996970274,126.45774287849963L213.16942491250393,126.95582858266653L212.90851646488227,127.84600142595173L212.4568846055654,128.96803532771537L212.34165434175338,129.2448193800874L212.05368926788924,129.4118407404494L211.3626025801259,129.48633176213661L211.19805110934612,129.46622106449286L211.07050897473619,129.1290204805996L211.08282084553412,128.80190576723044L211.06638044321244,128.61574960571988L210.87307669931215,128.36906737259187L210.5425730059851,128.30430627383612L209.96022888963762,128.62089060968174L209.6415947244459,128.62215331185826L209.35974872409133,128.5439555597054L208.78462953791131,128.69620139492872L208.53249421978126,128.8138109423603L208.28116986320128,129.06444646839645L207.93171915912535,129.55171369403342L207.61197913727574,129.60915913111467L207.14796168338307,129.58940949470662L206.41758022235535,129.63017124296948L206.3537354312739,129.66741573967602L206.32616273858912,129.7022251951571L206.18417074364243,129.84642115402357L206.02249450017462,130.04417873181364L205.68874696064904,130.2337252227817L205.39068172930456,130.33580056194523L205.19995831760843,130.33580056194523L205.04499093786944,130.2191171517061L204.94878140858236,130.06104153439037L204.93027674049608,130.00738702800118L204.61584483060778,129.91297217896818L204.31785332303934,129.91297217896818L204.10324340751959,129.91297217896818L203.87676396386723,129.9858349393221L203.6979100803046,130.1171303635233L203.60258523634366,130.2191171517061L203.55510712380692,130.42398818309448L203.55488595247516,130.58367902005193L203.45948738473817,130.68574949016647L203.2807072249534,130.7586045755661L203.1174827821642,130.6940449076751L202.89926040156024,130.70026646465067L202.72040651799762,130.83154910336498L202.62508167403848,131.05019800931677L202.44622779047586,131.26893056039353L201.82665316662678,131.55419273067037L201.65185409081187,131.58682947811758L201.56714547077354,131.53183377018604L201.2575793301803,131.4606092080403L201.1010637511181,131.47990301845948L200.7861157747884,131.83385429612918L200.3651530067982,131.94861883713702L200.05418611443838,131.8307890756123L199.512463799344,131.83051861491822L199.3106080972866,131.90309187733374L199.20577288606364,131.96664923819617L199.1662569414675,132.04129462729406L198.9015148574308,132.17029954258714L198.6661885605099,132.22754418399063L198.39621208828976,132.60642934925227L198.27906500626978,132.83440007858826L198.08775180435532,132.991965270744L197.82654846162495,133.02099006886237L197.67217087210338,132.9773626891706L197.41104125315178,132.81772393071606L197.11415560224395,132.71613382236956L196.88863456769286,132.78869832893224L196.63812117266116,132.9365293902306L196.4374450510395,133.10806377471727L196.28306746151793,133.3693688308913L195.96251647811732,133.60155206775107L195.62906383370137,133.7159284552863L195.09581975298988,133.71773106336377L194.88209452279716,133.60155206775107L194.822746882126,133.4564384051323L194.6921820726493,133.25318432292352L194.56154353939564,133.06452705088304L194.26473161226386,132.991965270744L194.06287591020555,133.02099006886237L193.8848329881921,133.13708811384504L193.8512149457747,133.38252848081038L193.8333737916846,133.56567951614625L193.76680122084508,133.61101590264934L193.67110775799938,133.71773106336377L193.552412476658,133.89186091787587L193.5048606403443,134.02254572568972L193.4929911122099,134.15313808281053L193.54046922474663,134.31274781005732L193.6829772861347,134.57401000154596L193.70671634240261,134.7772275292482L193.61986973282455,134.9781865617797L193.23178776948043,135.48830944105293L192.95871489861747,135.6043684882893L192.78067197660403,135.57535389836812L192.5669467464104,135.56084656043595L192.32837660329187,135.660775406604L191.72789643774468,135.9850617316215L191.34858760389034,135.95604864508823L191.12594179665393,135.8590972515617L190.8643698350379,135.87702794957613L190.7205347456611,136.0720102023306L190.6795443255196,136.19707003262693L190.66730617849953,136.44601204803894L190.57234995342606,136.57656133001092L190.20867056034513,136.90783436424636L190.02620421169922,137.20044495604816L189.77687039710418,137.30197306408218L189.43258035743474,137.22945313002265L189.2069855991076,137.28746913451232L189.08821659398927,137.53412212854255L189.07619961829914,137.7400503192648L188.86262183566214,138.08541299577382L188.60149221670872,138.23043526087122L188.10311948262733,138.2162033887771L187.69159335812492,138.45949255153937L187.1511980710202,138.57955787567153L186.81228986709084,138.33870467693305L186.91749369719855,138.1381978283539L186.96305499152731,138.01281071270932L186.96305499152731,137.85328134132533L187.02291869863893,137.72104319074197L187.14891263392747,137.43178646363504L187.22632260001956,137.0296367402525L187.0572002550516,136.8290941800201L186.87945222814778,136.7464791438697L186.87443901129518,136.73810046783228L186.7157117189181,136.64665515665274L186.37776192409,136.6985493842194L184.7632849265092,137.26395649222968L178.295276778701,139.3110763266027L170.74832115111622,141.658703256639L162.73690572697615,144.28530979413654L156.7007714661877,144.40366010799107L146.94283975944563,144.7260313169645L130.2360734297945,145.0303900669992L125.01613510672905,145.06647671342762L125.03087986217542,145.5613228912698L115.45357140964916,145.46242830424717L109.46690580338236,145.49860282037162L101.68543484042675,145.48096551629396L95.4402199474107,145.48591476404636L94.80641663455481,145.49572326340603L87.46345469856988,145.47925577538535L73.28534020416464,145.3979076442215L74.15874579301999,137.25179475118966L74.26535037489612,136.0014603820282L74.27559797993217,135.96433811007455L74.54306784372511,133.39334461377075L75.04461070022808,129.26709512691014L75.24867811560398,127.91653948327803L75.46373037378635,125.73017558502443L75.61714955420484,124.0251078029296L75.66278457231056,124.10588075270653L75.78361784319259,124.12474268752885L76.13469047036688,123.9344063896283L76.18629711442827,123.81707951194676L76.70973593276904,123.19431307513923L77.82303869273346,122.55344013555896L78.01472051353448,122.16527853929256L78.37596702196606,121.8673731207291L79.09846003883013,121.53325325402284L79.30488661507661,121.35269037060152L79.92424006759484,120.48592650449518L80.21913517651865,120.20601207231584L80.52140266316474,120.09765522318003L81.06695861467506,120.19698239618947L81.39871561221571,120.36854433682674L81.86324913254794,120.94631730493711L81.87799388799431,121.0727188103233L82.05773245688306,121.29906233613428L82.14339948602537,122.0206605141002L82.26135752959453,122.30050554334366L82.3350813068264,122.39077585117775L82.84377536971988,122.44493750154243L83.12392572319732,122.72476631136442L83.85386484156152,122.66158009573064L83.9644505074084,122.50812558714506L84.45102743713232,122.20120691891725L84.58373023614877,122.20111664682827L85.121913809935,122.4087395096326L85.18826520944367,122.37263160869543L85.29885087528965,122.19208943224476L85.56425647332162,122.13792591094216L86.4630967653211,122.10190694738503L86.71442112190289,122.16500772169229L86.9577095867644,122.29138818035653L87.1874328766171,122.39077585117775L87.38862506467922,122.41921076758626L87.51248101042893,122.39077585117775L87.62859595956706,122.32442728333535L87.665457848183,122.13783563807192L87.75392638086032,121.87603963141783L87.8055330249208,121.8355055504685L88.0831030461959,121.76202002953187L88.5159353423187,121.78061717213313L88.53296553485961,121.84137352708649L88.57970640962503,121.90312241117908L88.66080256457735,121.91214998216174L89.0194687408075,121.79036711150866L89.41123689301276,121.9302050907254L89.47500796031727,121.99032828114287L89.82608058749156,122.05649932972847L90.21644798792931,121.82187377124546L90.90207911617836,121.18079036593144L90.90945149390154,121.01827614391595L91.03448702008427,120.813864241808L91.50661408947235,120.6300331135285L91.8089552998972,120.57585802955646L92.3176493627916,120.31400613505139L92.90743958063922,120.17856182232799L93.13598329005526,120.01602533685127L93.86592240841946,119.25738367308531L94.35987171586657,118.3271478204656L94.95710803521524,117.9568268313592L95.2814926550318,117.68584836987066L95.43631258721689,117.1799950324862L95.06032132333894,116.46632097020256L94.89812901343066,116.36694310484108L94.43366921687539,116.22239107004498L94.382062572814,116.14107929391093L94.39680732825946,115.69836597237827L94.62026409704777,115.01752895809477L94.6224020865875,114.90801082963162L94.64016951689973,114.72249494004336L94.77287231591527,114.55080043995395L94.84895525401862,114.30554140143977L94.70924869616465,114.0126475811926L94.62387656213104,113.97586557706609L94.20726349699817,112.93486708126738L94.2505393542342,112.80046098978391L94.4091191990583,112.71160879876925L95.18963282860295,112.434740967768L95.28547373900346,112.40572482813468L95.52640304299257,112.1086869334058L95.59975820133786,111.92192472174747L95.89996142222299,111.4428840160349L96.45547008365884,110.82873658422523L96.40231524027513,110.17574705432935L96.29172957442916,109.83214006275739L96.18851628630455,109.67841590563103L96.23275055264367,109.51564562001204L96.40968761799832,109.19913744435053L96.40968761799832,109.13583416105939L95.97471733233579,108.46659441473412L95.89362117738074,108.40328477258527L95.67982222341107,108.3490189275517L95.62821557935058,108.28570826460782L95.42916138082546,107.88774293865572L95.40888734208693,107.5951341207865L95.49359596212616,107.37578286958706L95.716684112027,107.25457151197998L95.93048306599667,107.18220556156393L96.15172812146648,106.87464225742815L96.62356029574494,106.37708590475086L96.84886015896336,106.22645532909883L97.02166869279245,105.98643513215984L97.07062128087455,105.90148074460058L97.15083275050074,105.48112742222747L97.26399874855178,105.21194741653153L97.56265377011368,104.82250099251223L98.25086523056507,104.43475309653877L98.61557675652784,103.9397450423553L99.00107838766871,103.8401058987074L98.99267387706368,103.50878010600672L99.12036345922752,103.2768159298962L99.23787916013407,103.24984497653895L99.47298428572412,103.29527920949477L99.57818811583275,103.25382727123952L99.86047645885083,102.8830119904369L99.8859848857719,102.58051700194483L99.885837438218,102.49905300784485L99.88605860954885,102.46239391311292L100.12433385756049,102.45623878775223L100.3016395418008,102.52457849072152L100.48845559330402,102.77991891023657L100.74597274717235,102.73203760660499L101.2179523690047,102.37721737783977L101.27803724744808,102.18079160068464L101.65823076662855,101.79543770814462L102.194350074652,101.63077122628965L102.55176294666762,101.58061917730265L102.9447844030874,101.62742173198012L103.14848319957582,101.60524260915372L103.51916635149428,101.38652568065027L103.70406558478862,101.05282485536281L103.79437721189606,100.62884159011946L103.97337854301259,100.20664451172479L104.2745401730026,100.02863171054923L104.36219774412984,99.84128800082544L104.37237162538804,99.74204549236902L104.28368192137987,99.6436165943187L104.28530384447822,99.52816241782602L104.70641406002233,99.04685722686008L104.90089738435745,99.01199192614513L104.97145103916773,98.93628384057001L105.54738118689602,98.06096507429265L105.67263788441142,97.65990437495111L105.85613636593916,97.51833227373754L106.40493616364711,97.30094172316785L106.86327688669189,97.32222816831973L107.3905493414486,97.23699143221666L107.78592995873805,97.30873166351921L108.18374346067776,97.47177501112856L108.79557708791708,97.26335061462169L109.40807422915259,96.97294142741839L109.73739834204389,96.98317750680462L109.87290264459352,97.05781892429786L111.03714853462589,96.10834832614592L111.11713883292123,95.91764205991967L111.58005043015419,95.44896354653838L112.7325005158309,94.9404770454903L113.22445928129218,94.65169668346107L113.74325350166691,94.0103040699264L113.84322294359299,93.58862870689381L114.36887347524953,93.64119219820441L114.73240542077565,93.5547341159313L114.93573559837932,93.45395568119011L115.45349768587312,93.67671765276145L116.50221841698294,93.28619998752629L116.70289453860732,93.49519163062268L117.40238573697388,93.6107416702821L117.59937566973531,93.47724722425846L118.60113435475068,93.00723299331457L118.848330179806,93.01239914615189L118.97712561862863,93.08871276520313L119.08299296273162,93.0898909976886L119.29207359495922,93.02363778173594L120.30009880103808,92.97868313504296L120.88148450828339,92.84807743152714L121.11555750099251,92.96726316030663L121.61842738548421,92.92964962446104L121.8628217070036,92.95239903930315L122.01262842233791,93.03677971257412L122.23320996381335,92.945782682973L122.58516727631468,93.02753504646444L123.15121843789348,93.25266651003722L123.51858401983645,93.23000866732309L123.7630520651337,93.13747330378737L123.86257916439627,93.0402238008628L124.11869556649708,92.95647761211967L124.31214675795036,93.06560124314183L125.37539107317662,92.50936175708694L125.84891889433038,92.01762035465708L126.14993307676559,92.02768212541378L126.36756566715121,92.12848035657134L126.92668679367216,92.61033457983149L127.40168909037038,93.14952743850426L127.45233732532779,93.41652592438095L127.56660918003672,93.51404227238663L127.83127754029556,93.53733362276216L128.24818550053715,93.41634466600817L128.5372564310601,93.28049024418942L129.00422283604075,93.23744044752584L129.50746133942084,93.34592544638508L130.03067898642894,93.38670886142381L130.86678034400666,93.26381414270782L131.3575595290322,93.35752608552502L132.36757527709688,93.27287724609005L132.58174284995403,93.52038622736109L133.99937736232823,93.51041715277006L134.49244198445012,93.158228154889L134.94363150110257,93.03705161434118L135.3056152473082,92.27305811003362L135.45999283682977,92.04019133448037L135.4014561577087,91.71730180406848L135.4187812453565,91.66726261291069L135.69266507776956,91.53500156831115L135.89046597208107,91.37390998138972L135.89164555251682,91.14065173010385L135.98792880558085,91.03376563517668L136.62814608705412,90.82560974017906L137.14096868147408,90.33194090211919L137.3835936323403,89.89010374568397L137.77388730900202,89.3690767068324L137.87230855160487,89.08442743934393L138.21180654575437,89.09023116768049L138.8678744393328,89.25327776309541L139.6583407788039,89.14037881444392L139.70345973046915,89.10319885640456L139.74725165414384,88.93352887276978L140.37523078859795,88.62038619427403L140.80216518254292,88.32428026166735L140.98588483540243,88.22197806692384L141.4977490207175,88.0943703811904L141.79072731143424,87.87896496477606L142.08930860921828,87.22073706066067L142.08046175595155,87.10898567082177L142.70497587287537,87.0073012942662L142.8721076758584,87.02625950652782L142.96050248475785,86.83195815856698L143.18705565218897,86.6235909359325L143.30044282156996,86.58957308014351L143.43351423947206,86.68990261728914L143.5962226158208,86.690084043767L143.68623934782045,86.64236872395213L144.32999537060095,85.86681466838218L144.47795899150424,85.61804645116763L144.53951834549116,85.40764828536703L144.52698530336238,85.19951230878087L144.65681287506595,84.94128473665478L144.82018476540998,84.72533191490766L144.990118071928,84.63495647073614L145.13704955994854,84.66943719488017L145.84324962204482,84.43351317108818L146.04363084855868,84.2160025628832L147.06573729608954,84.45701517797852L147.30135848812006,84.80182350342693L147.68088849330434,85.18345274569083L147.84802029628827,85.21584403135512L148.45336623113144,85.06958307132345L148.8312005894404,84.91660473990942L149.08761188664994,84.53831882998156L149.279367431227,84.06536560683026L149.30834087567928,83.5656096087123L149.42017984573886,83.39580995590131L150.0090116544834,83.09694926815428L150.42908973714566,82.94619827797669L150.73150467134656,82.76349585208482L150.8863983273095,82.40706309801362L151.17296264940614,82.21354553028141L151.47803163958815,82.06559005501731L151.70915568120745,81.81514809984992L151.89398119072484,81.43960509147837L151.92966349890503,80.94647673375039L151.85704557833287,80.72241541563199L151.93099052689558,80.43778943652342L151.9957200033041,80.22152068256628L151.97721533521963,79.95966522902927L151.90290176777035,79.72249809037748L151.91307564902854,79.60845170627636L152.21563803078425,79.27374787856115L152.78670240921565,79.03610420982614L152.88763026024571,78.93575939213679L152.99548814633454,78.6522437068702L153.6315031725053,78.7123623108555L154.3256125351354,78.70872978098942L154.52068564968886,78.66668311504691L154.7425204953779,78.74378361806203L154.9246919489151,78.86347393705273L155.71714883037203,78.67104217600354L155.98447124661106,78.78201571820819L156.121523748483,78.76721329010297L156.8511679717385,78.37634557871797L157.04911631360392,78.36799036920092L157.31363722630886,77.8592125763198L157.4066029093974,77.55131288017947L157.65261915401697,77.09434376780337L158.06783146738144,76.90677007001295L158.19271954601118,76.89505222958633L158.59104911438953,76.12190530640282L158.54261259274972,75.75106340098682L158.5808015093553,75.63613670493078L158.82939808617812,75.32741547337218L159.0011007633493,75.18849570265138L159.37915629299096,75.2441002740834L159.82149895637667,75.24273742205378L159.90333234910304,75.16741673368051L161.32347346990355,74.89765501746842L161.87817116979022,75.06656391932029L162.35892392111236,74.70520854170172L162.59270201871277,74.64142203502888L163.011895416048,74.40816943098707L163.02818837081577,74.34001863177491L163.19509900246703,74.26359810441409L163.34896052554814,74.29322137741701L163.34188304293457,74.28786011921784L163.34955031576646,74.29140400220194L163.57308080833081,74.17309189219077L164.39428996290644,73.48608006292716L164.45688144977612,73.28914279871697L164.93409545979193,72.9548733518227L165.28074466033377,72.90543142437855L165.41411097334367,73.0604816295131L166.0220372403901,73.21198409568933L166.20398752259644,73.20007849803187L166.43747072508722,73.06675264046453L166.85496847554623,72.94796604406201L167.16070097972352,73.11537551164201L167.324588936508,73.28378079535332L167.48670752263934,73.32976666099012L167.59301720940675,73.32431380684693L167.82568945034654,73.19980585052599L168.06905163898682,73.14273141304693L169.82603669795662,73.83222950612662L170.29123373228413,73.96072497333671L170.62992076488354,74.38345348209305L171.047934581783,74.44015465112034L171.3243987463993,74.36564340768427L171.92030803775742,73.99652881947077L172.32991734405277,73.5785033146376L172.6211999878924,73.19862437789016L172.97617997525958,72.9375141842329L173.38608417666455,72.90870332709483L173.52483232541363,72.6564898131096L173.4779440030943,72.44098797354809L173.5603671860381,71.95333565144529L173.7648769440775,71.69590738949864L173.97299916720112,71.28220312798385L174.00071930743889,71.10693300043295L174.27534037762507,70.5268203461892L174.7553558911759,69.7559011265621L174.87958045580945,69.66715693844935L175.35089656364835,69.51421613526054L175.66171600845337,69.00545095823145L175.76212779304296,68.69299043432557L176.0784027973632,68.48973833009995L176.38885362328438,68.42726102934421L176.6238113013187,68.20981397795595L176.7021796765157,67.91996532879466L176.56461110820237,67.35405843312674L176.68256915177244,66.49447169265886L176.76086380319157,66.18026489261001L176.89799002884047,65.9869490413671L178.01497897766785,65.39641661422547L178.13168371702432,65.21363379457398L178.17090476651174,64.94777614373379L178.13168371702432,64.73031512742273L178.03377854086193,64.51275655753352L177.81835766379209,64.22275924321139L177.83796818853625,64.02939088402354L177.9750206904082,63.78760488687385L177.9750206904082,63.545901780240456L177.7759664918849,63.17450405898671L177.60094624473822,62.22922367268757L177.25046340778226,61.56346649881243L177.23092660681596,60.9347000052735L177.27007393252552,60.547781504369595L177.32883178297925,60.45109415162278L177.64215783621148,60.426876588722735L177.85757871328042,60.30596964248525L177.93587336469955,60.185060665517994L177.99463121515146,60.03993079300517L177.98460478144898,59.469307121241854L178.22111065880563,58.796555906801586L178.33597230373198,58.839993421827785L178.6520998604983,58.7891796989602L179.2954135406162,58.42400242540225L180.0159897392714,58.10470755761753L180.27350689314062,58.1691869556721L180.37310771617922,58.29896365316972L181.00646868636977,58.584464148403185L181.6087919463489,58.43338252244348L181.80821476375695,58.55331919032642L182.44150201017328,59.104346481366065L182.53476258836963,59.2459439369386L183.03062871402472,59.71697445947984L183.26330095496633,59.90098941565611L183.35022128832134,59.9046314257007L183.56313555696488,60.19698777084977L183.81932568284265,60.8515825609561L183.87159584089932,60.914580755732004L184.29410680821002,60.719120685762846L184.66737029233173,60.46283872985941L184.81695583633245,60.42277962453636L185.11487362012303,60.429425809707936L185.2700621711947,60.26144842558642L185.2791301957941,60.15984069070055L185.05781141654643,59.68756440898278L185.02810073432283,59.542606614756096L185.0519135143677,59.44881955167921L185.45149638695966,58.88270216942692L186.40739888253756,58.15343144989265L186.57504675196105,57.50970301640427L186.56288232871793,57.20922204888711L186.62333582604697,57.08397998850933L186.73030902680966,56.985879775241756L187.1235516545603,56.810079388310896L187.3333695245583,56.348605699735344L187.22064586917259,56.174793877821685L187.05911707325868,56.09225912021293L186.93422899462985,56.13115806991527L186.824380566557,56.11321174221575L186.54799012571766,55.81868515280985L186.56944374489103,54.89558088384683L187.0022023172378,54.477903762029655L187.0617711292398,54.06876804137164L187.15805438230382,53.90383146443264L187.25256826471468,53.786095415620366L188.0366943593417,53.521820170493356L188.49378177817562,53.4124620536536L188.84028353116082,53.403257669552204L189.16466815097647,53.248330623196125L190.5064408965818,52.191092185701564L190.80133600550562,52.10905856108093L191.007762581753,52.13640320671311L191.67864895455568,51.717107200764985L191.72288322089207,51.585023889253534L191.7081384654466,51.34336621536886L191.73762797633935,51.188394736731425L192.30530106101833,51.05165241952864L192.6223133031117,50.84197580915725L192.7771332352968,50.65964334508135L193.6765633175146,50.27673009914997L193.919851782377,49.96673775160025L193.9788308041625,49.693203975767574L194.06729933683982,49.592905646481086L194.84877137548756,49.20072572614845L195.1879007507514,48.97275731037644L195.60812628096755,48.7812582452616L196.0074142584508,48.63252377924664L196.18685793223085,48.67000406088573L196.52967349635492,48.52591820972566L197.01625042607975,48.06993126211046L197.4880826003582,47.79632518433573L197.8493291087907,47.805445555019105L198.13685183999132,48.13377117911568L198.85204620290915,48.68094717189206L198.95525949103194,48.854210872558724L198.89628046924736,49.127776620875466L198.88890809152508,49.51075115272806L199.22811119056405,49.56536895089357L199.51563392176558,49.70213957711758L199.77366714207437,50.05773101084196ZM710.7471217804805,60.26044692265168L711.9049537018927,61.12168798813491L711.6544403068619,61.431017719305146L711.7221924581372,62.30886646491763L712.3518672394666,62.47597693556963L712.7174634507564,62.26699722107969L712.9680505695642,62.37567471084094L714.2545304822452,64.43595890680763L715.0534750560983,66.87579519628662L714.8368008748166,67.66939647352638L715.2357202334124,70.57446025251875L714.7865212587449,71.15684178437914L714.507771657034,71.14466007294823L713.4207145617629,70.30352682364901L711.2892864382375,69.85791922399221L710.7612030219307,69.25197239851104L711.8647005195244,68.48755572609207L711.8269539455832,66.31089798720541L711.6236237679805,65.6473373965473L710.925164702493,64.5020194944409L710.2922460749651,64.3603433586959L709.09371862852,62.75330258670647L709.1527713740825,62.032707004168515L708.7624776974217,61.49819822944664L707.168790805019,60.57500303891038L706.9130430218047,59.84198859621256L706.9457763788951,59.639488278181034L707.5754511602254,59.28710228888531L708.5296580089262,59.31542128372803L709.5745451036219,59.54042129903837L709.9278294441119,59.900898365381636ZM721.529445371847,74.15291866628559L722.0278181059284,74.34474377459219L723.4879175139895,77.18517673962515L723.9553999854106,78.4928634187645L725.2056077996949,83.02143802653563L726.7146597958363,90.46322654501046L726.6112990601587,91.84874368857118L726.4321502814864,94.36453595484863L725.7786627201112,101.06178771991745L724.6421369703176,109.02107295090718L723.5055374967469,115.49696770924584L721.7559248155012,123.27897631906762L721.6264658626833,124.89298681696664L720.3633563873846,123.76798216830912L719.2268306375909,123.44062804547411L717.755967558056,123.52240025634183L715.5497835244178,123.84984097541792L713.6777893729677,124.5044980069315L710.9367393355178,125.5683036914188L706.7916936844822,127.20463321537L704.6523033930152,127.85908078451394L703.7831737832394,128.10442718630156L702.3123844274805,128.84059751572795L698.5684698483574,130.72145578578375L693.2200309815789,133.58280462545736L690.8800382922673,134.8904141000744L689.4761164024567,136.0344377769834L688.07212078887,137.01486200340423L686.6936336022045,138.30150413391038L685.8358574541217,138.78563692221815L685.7024911411108,138.4709317179345L685.8051883627932,138.1572038783479L686.7349926412307,136.7697231628722L687.4035935769389,136.0344377769834L687.6030163943487,135.26970256066397L687.5002454488895,134.57905671333128L687.6030163943487,133.98252938330552L687.9882231303818,133.54296615165094L688.7587103262222,133.44877704510145L689.275514004612,133.74621221230018L690.1446436143879,133.58280462545736L692.4177688377513,132.19310730361303L693.4205596556476,131.53913650267395L694.6239528713895,130.8032369747334L698.6353373143065,128.84059751572795L700.1362796949525,128.4230946482412L700.598527778192,128.2659724848736L701.4432548177037,127.85908078451394L702.0449145636858,127.36827313760159L702.6018239768891,126.85190188433171L704.919699533033,126.38655923704164L705.5883004687403,126.05923189408713L706.4028744833658,125.94040520310591L707.5939558283098,125.48655431909492L708.262483040241,125.07734259039762L708.9978777181195,124.42273676167542L709.3322150478625,124.25903103947348L709.8443741282872,123.51978283768995L710.1012277681593,123.3625554908781L710.2553104625722,123.3625554908781L710.7361369376731,123.76798216830912L711.5383990815008,123.84984097541792L713.2766583010534,123.27690036637296L714.056360969048,122.85944139670664L715.1607431519687,121.91603183426332L716.3678225565727,121.25563597984274L716.4189131341927,120.82099708543228L716.4448639037792,120.31201963658532L716.5219052509856,120.06036203635585L717.3694337940324,120.34344236730567L717.6262874339063,120.56366858037927L719.1672618255889,120.37486496306292L721.0318835993157,119.75650126170467L721.4998821371773,118.36426920726672L721.9010132090916,115.6608696324256L722.3021442810059,114.0219560196947L722.7371882904463,111.62504794390543L723.1712738907818,109.43109406605481L723.6392724286443,106.06813154836254L724.0404035005586,103.3601718355053L724.5752695043693,100.56917593628395L724.5084020384211,99.4195885439899L724.4322453765417,98.4488715315224L724.5863280709546,96.87121394357382L724.9764005762836,95.72330677370428L725.2437967163005,94.40866647363737L725.2437967163005,90.21652000132644L725.0432680422318,88.07840792561592L724.5752695043693,85.7751833132802L723.7645291261597,84.14249937923887L723.1223950264775,82.84627069658427L722.506064248827,79.11438128228156L722.5317201233038,78.3234896341778L721.1962138987628,74.39935529714512Z" class="state" fill="coral" stroke="#111" stroke-width="0.5"></path></g></svg>